<?xml version="1.0" encoding="UTF-8"?>
<svg id="_레이어_2" data-name="레이어 2" xmlns="http://www.w3.org/2000/svg" viewBox="0 0 198.83 29.87">
  <defs>
    <style>
      .cls-1 {
        fill: #3d76ad;
      }

      .cls-2 {
        fill: none;
      }

      .cls-3 {
        fill: #215a9e;
      }

      .cls-4 {
        fill: #3f7cb4;
      }

      .cls-5 {
        fill: #7eaed6;
      }

      .cls-6 {
        fill: #6798cb;
      }

      .cls-7 {
        fill: #6091c7;
      }

      .cls-8 {
        fill: #171c61;
      }
    </style>
  </defs>
  <g id="_레이어_1-2" data-name="레이어 1">
    <g>
      <path class="cls-2" d="M75.3,20.78c-.91-.74-2.08-1.11-3.47-1.11s-2.59.37-3.5,1.11c-.92.75-1.39,1.73-1.39,2.91s.47,2.16,1.39,2.91c.91.74,2.09,1.11,3.5,1.11s2.56-.37,3.47-1.11c.92-.75,1.39-1.72,1.39-2.91s-.47-2.16-1.39-2.91Z"/>
      <path class="cls-2" d="M103.74,8.57h-13.62v4c0,.84.48,1.29,1.38,1.29h12.24v-5.29Z"/>
      <path class="cls-3" d="M19.75,16.62c0,.76-.34,1.31-1.07,1.73-.52.3-1.38.58-2.56.83-1.2.25-3.48.37-6.77.37-1.61,0-2.81-.06-3.58-.17-.92-.12-.92-.48-.92-.68v-4.95h10.74l.53-9.62c.05-.7-.11-1.26-.47-1.65-.37-.39-.92-.59-1.64-.59H3.64L0,5.51h11.04c.3,0,.5.04.5.58v4.06H.49v9.23c0,2.83,1.55,3.62,2.85,3.78.93.12,2.2.18,3.78.18,4.2,0,7.14-.23,8.98-.7,1.6-.42,2.8-.86,3.65-1.35v8.43h4.38V1.48h-4.38v15.14Z"/>
      <rect class="cls-3" x="26.69" y="20.5" width="27.61" height="3.61"/>
      <path class="cls-3" d="M32.9,16.69h18.14v-3.61h-16.09c-.43,0-.55-.12-.55-.55v-6.87h16.53v-3.61h-20.88v11.94c0,.93.21,1.6.64,2.04.44.45,1.16.67,2.22.67Z"/>
      <path class="cls-8" d="M64.1,9.94l.14.31c.56,1.24,1.45,2.39,2.64,3.42,1.08.93,2.3,1.67,3.63,2.19l1.36-2c-4.17-2.02-6.28-4.87-6.28-8.48v-.58h5.67v-2.25h-14.47v2.25h5.67v.64c0,3.82-2.17,6.85-6.46,9.01l1.45,2.09c1.44-.6,2.77-1.46,3.95-2.54,1.28-1.18,2.16-2.44,2.6-3.74l.11-.32Z"/>
      <path class="cls-8" d="M77.62,19.24c-1.39-1.15-3.34-1.74-5.79-1.74s-4.42.58-5.8,1.73c-1.38,1.14-2.07,2.64-2.07,4.45s.68,3.29,2.03,4.41c1.41,1.18,3.38,1.78,5.85,1.78s4.41-.6,5.82-1.78c1.37-1.12,2.06-2.6,2.06-4.41s-.7-3.3-2.09-4.45ZM75.3,26.59c-.91.74-2.08,1.11-3.47,1.11s-2.59-.37-3.5-1.11c-.92-.75-1.39-1.72-1.39-2.91s.47-2.16,1.39-2.91c.91-.74,2.09-1.11,3.5-1.11s2.56.37,3.47,1.11c.92.75,1.39,1.73,1.39,2.91s-.47,2.16-1.39,2.91Z"/>
      <polygon class="cls-8" points="76.86 7.62 70.78 7.62 70.78 9.78 76.86 9.78 76.86 16.58 79.85 16.58 79.85 2.16 76.86 2.16 76.86 7.62"/>
      <path class="cls-8" d="M98.43,16.1h8.31V2.49h-2.99v3.83h-13.62v-3.83h-2.99v11.49c0,.75.17,1.3.49,1.62.33.33.91.49,1.74.49h6.07v5.11h-11.63v2.25h26.25v-2.25h-11.63v-5.11ZM91.5,13.85c-.9,0-1.38-.44-1.38-1.29v-4h13.62v5.29h-12.24Z"/>
      <path class="cls-8" d="M125.35,2.64h-10.93v2.25h8.26c.43,0,.76.11.97.33.2.21.29.52.27.91-.26,6.09-3.62,10.93-9.98,14.4l1.67,2.01c7.59-3.86,11.49-9.87,11.61-17.87,0-.73-.14-1.26-.41-1.57-.27-.31-.75-.46-1.44-.46Z"/>
      <rect class="cls-8" x="133.32" y="2.16" width="2.96" height="26.88"/>
      <path class="cls-8" d="M153.3,6.21l.11-.22.12.21c.83,1.4,2.23,2.61,4.16,3.6,1.75.9,3.7,1.52,5.81,1.84l.88-2.27c-6.24-1.28-9.41-3.65-9.41-7.04v-.31h-3.2v.28c0,3.38-3.13,5.75-9.29,7.04l.94,2.3c5.13-.87,8.45-2.69,9.88-5.43Z"/>
      <path class="cls-8" d="M140.24,15.63h11.63v2.94h-8.04v2.04h15.02c.63,0,.97.32.97.93v1.39h-15.99v4.42c0,.73.16,1.26.48,1.57.32.31.92.47,1.79.47h17.34v-2.04h-15.56c-.67,0-1.03-.33-1.03-.97v-1.5h15.79l.35-5.15c.02-.38-.07-.67-.25-.85-.19-.2-.51-.31-.95-.31h-6.93v-2.94h11.62v-2.07h-26.24v2.07Z"/>
      <g>
        <polygon class="cls-5" points="172.68 .04 173.76 .4 173.73 .38 172.62 0 174.67 10.1 181.16 7.27 172.68 .04"/>
        <polygon class="cls-6" points="178.15 27.03 181.16 7.27 174.67 10.1 175.36 13.55 178.11 27.11 179.02 26.3 179.03 26.26 178.15 27.03"/>
        <polygon class="cls-7" points="181.16 7.27 182.63 3.36 173.76 .4 172.68 .04 181.16 7.27"/>
        <polygon class="cls-4" points="185.72 4.39 182.63 3.36 181.16 7.27 198.76 8.85 198.83 8.79 185.72 4.39"/>
        <polygon class="cls-1" points="178.15 27.03 179.03 26.26 179.02 26.3 179.12 26.22 179.12 26.18 188.47 17.95 189.33 17.19 181.16 7.27 178.15 27.03"/>
        <polygon class="cls-3" points="189.33 17.19 190.66 16.01 198.72 8.88 198.76 8.85 181.16 7.27 189.33 17.19"/>
      </g>
    </g>
  </g>
</svg>